<svg width="121" height="121" viewBox="0 0 121 121" fill="none" xmlns="http://www.w3.org/2000/svg">
<path d="M107.739 90.851L107.235 97.3043C106.479 105.018 105.874 110.917 92.2109 110.917H28.7867C15.1238 110.917 14.5188 105.018 13.7626 97.3043L11.7459 72.096C11.3426 67.9114 12.6534 64.0293 15.023 61.0547C15.0734 61.0043 15.0734 61.0043 15.1238 60.9539C17.8967 57.576 22.0813 55.4585 26.7701 55.4585H94.2276C98.9163 55.4585 103.05 57.576 105.773 60.8531C105.823 60.9035 105.874 60.9539 105.874 61.0043C108.344 63.9789 109.705 67.861 109.252 72.096" stroke="#27AE60" stroke-width="1.5" stroke-miterlimit="10" stroke-linecap="round" stroke-linejoin="round"/>
<path d="M17.6458 57.6265V31.6619C17.6458 14.5203 21.9313 10.2349 39.0729 10.2349H45.4758C51.8788 10.2349 53.3408 12.1507 55.7608 15.3774L62.1638 23.9482C63.7771 26.0657 64.735 27.3765 69.0204 27.3765H81.8767C99.0183 27.3765 103.304 31.6619 103.304 48.8036V57.8282" stroke="#27AE60" stroke-width="1.5" stroke-miterlimit="10" stroke-linecap="round" stroke-linejoin="round"/>
<path d="M47.5438 85.7085H73.458" stroke="#27AE60" stroke-width="1.5" stroke-miterlimit="10" stroke-linecap="round" stroke-linejoin="round"/>
</svg>
