<svg width="35" height="35" viewBox="0 0 35 35" fill="none" xmlns="http://www.w3.org/2000/svg">
<path d="M18.8125 3.67505L18.7687 3.77713L14.5396 13.5917H10.3833C9.39166 13.5917 8.44374 13.7959 7.58333 14.1605L10.1354 8.06463L10.1937 7.9188L10.2958 7.68547C10.325 7.59797 10.3542 7.51046 10.3979 7.43755C12.3083 3.0188 14.4667 2.01255 18.8125 3.67505Z" stroke="#FFC501" stroke-width="1.5" stroke-linecap="round" stroke-linejoin="round"/>
<path d="M26.6729 13.8831C26.0167 13.679 25.3167 13.5915 24.6167 13.5915H14.5396L18.7687 3.77689L18.8125 3.6748C19.0312 3.74772 19.2354 3.8498 19.4542 3.9373L22.6771 5.29355C24.4708 6.0373 25.725 6.81022 26.4833 7.74355C26.6292 7.91855 26.7458 8.07897 26.8479 8.26855C26.9792 8.47272 27.0812 8.67689 27.1396 8.89564C27.1979 9.02689 27.2417 9.15814 27.2708 9.27481C27.6646 10.4998 27.4312 12.0019 26.6729 13.8831Z" stroke="#FFC501" stroke-width="1.5" stroke-linecap="round" stroke-linejoin="round"/>
<path d="M17.5 32.0835H11.8125C11.4625 32.0835 11.1125 32.0543 10.7771 32.0105C6.13958 31.7043 3.66042 29.2251 3.35417 24.5876C3.31042 24.2522 3.28125 23.9022 3.28125 23.5522V20.7085C3.28125 17.7772 5.06042 15.2543 7.59792 14.1605C8.47292 13.796 9.40625 13.5918 10.3979 13.5918H24.6312C25.3458 13.5918 26.0458 13.6939 26.6875 13.8835C29.6042 14.7585 31.7333 17.4855 31.7333 20.6939V23.5376C31.7333 23.8293 31.7188 24.121 31.7042 24.4126C31.4271 29.5168 28.5833 32.0835 23.1875 32.0835" stroke="#FFC501" stroke-width="1.5" stroke-linecap="round" stroke-linejoin="round"/>
<path d="M10.1354 8.06445L7.58333 14.1603C5.04583 15.254 3.26666 17.777 3.26666 20.7082V16.4353C3.26666 12.2936 6.2125 8.83737 10.1354 8.06445Z" stroke="#FFC501" stroke-width="1.5" stroke-linecap="round" stroke-linejoin="round"/>
<path d="M31.7333 16.4356V20.7085C31.7333 17.5002 29.6042 14.7731 26.6875 13.8981C27.4458 12.0022 27.6646 10.5147 27.3 9.27516C27.2708 9.14391 27.2271 9.01266 27.1687 8.896C29.8813 10.296 31.7333 13.1689 31.7333 16.4356Z" stroke="#FFC501" stroke-width="1.5" stroke-linecap="round" stroke-linejoin="round"/>
</svg>
