<svg width="69" height="69" viewBox="0 0 69 69" fill="none" xmlns="http://www.w3.org/2000/svg">
<path d="M37.3464 6.18117C44.1889 4.85867 51.5776 6.84242 56.8964 12.1324C65.3776 20.6137 65.3776 34.4424 56.8964 42.8949C50.9739 48.7887 42.4926 50.5999 35.0464 48.2712L21.5051 61.7837C20.5276 62.7899 18.6014 63.3937 17.2214 63.1924L10.9539 62.3299C8.88387 62.0424 6.95762 60.0874 6.64137 58.0174L5.77887 51.7499C5.57762 50.3699 6.23887 48.4437 7.18762 47.4662L10.4076 44.2462L20.6714 33.9824C18.3714 26.5074 20.1539 18.0262 26.0764 12.1324" stroke="#27AE60" stroke-width="1.5" stroke-miterlimit="10" stroke-linecap="round" stroke-linejoin="round"/>
<path d="M19.8088 50.2837L26.4213 56.8962" stroke="#27AE60" stroke-width="1.5" stroke-miterlimit="10" stroke-linecap="round" stroke-linejoin="round"/>
<path d="M41.6875 31.625C44.0692 31.625 46 29.6942 46 27.3125C46 24.9308 44.0692 23 41.6875 23C39.3058 23 37.375 24.9308 37.375 27.3125C37.375 29.6942 39.3058 31.625 41.6875 31.625Z" stroke="#27AE60" stroke-width="1.5" stroke-linecap="round" stroke-linejoin="round"/>
</svg>
