<svg width="402" height="156" viewBox="0 0 402 156" fill="none" xmlns="http://www.w3.org/2000/svg">
<path d="M269.376 111.511C275.731 79.3407 303.929 15 365.887 15C427.845 15 327.362 79.3407 269.376 111.511Z" fill="#FFC501"/>
<path d="M271.362 113.793C288.731 101.853 330.591 84.9283 359.083 112.751C387.575 140.575 312.474 125.039 271.362 113.793Z" fill="#FFC501"/>
<path d="M54.864 91.992C54.864 85.944 53.4827 81.24 50.72 77.88C48.032 74.52 43.664 72.84 37.616 72.84C36.3467 72.84 35.0027 72.9147 33.584 73.064C32.24 73.1387 30.896 73.3627 29.552 73.736V107.224C30.7467 108.045 32.3147 108.829 34.256 109.576C36.272 110.248 38.4 110.584 40.64 110.584C45.568 110.584 49.152 108.904 51.392 105.544C53.7067 102.184 54.864 97.6667 54.864 91.992ZM68.752 91.768C68.752 96.248 68.1547 100.355 66.96 104.088C65.84 107.821 64.1973 111.032 62.032 113.72C59.8667 116.408 57.1413 118.499 53.856 119.992C50.6453 121.485 46.9867 122.232 42.88 122.232C40.1173 122.232 37.5787 121.896 35.264 121.224C32.9493 120.552 31.0453 119.805 29.552 118.984V141.72H16V64.328C18.7627 63.5813 22.16 62.872 26.192 62.2C30.224 61.528 34.48 61.192 38.96 61.192C43.5893 61.192 47.7333 61.9013 51.392 63.32C55.0507 64.7387 58.1493 66.792 60.688 69.48C63.3013 72.0934 65.28 75.304 66.624 79.112C68.0427 82.8454 68.752 87.064 68.752 91.768Z" fill="#094938"/>
<path d="M106.345 74.632C105.225 74.2587 103.657 73.8853 101.641 73.512C99.6994 73.064 97.4221 72.84 94.8088 72.84C93.3154 72.84 91.7101 72.9894 89.9928 73.288C88.3501 73.5867 87.1928 73.848 86.5208 74.072V121H72.9688V65.224C75.5821 64.2533 78.8301 63.3573 82.7128 62.536C86.6701 61.64 91.0381 61.192 95.8167 61.192C96.7127 61.192 97.7581 61.2667 98.9528 61.416C100.147 61.4907 101.342 61.64 102.537 61.864C103.731 62.0134 104.889 62.2374 106.009 62.536C107.129 62.76 108.025 62.984 108.697 63.208L106.345 74.632Z" fill="#094938"/>
<path d="M161.367 91.656C161.367 96.2854 160.695 100.504 159.351 104.312C158.007 108.12 156.103 111.368 153.639 114.056C151.175 116.744 148.188 118.835 144.679 120.328C141.244 121.821 137.436 122.568 133.255 122.568C129.073 122.568 125.265 121.821 121.831 120.328C118.396 118.835 115.447 116.744 112.983 114.056C110.519 111.368 108.577 108.12 107.159 104.312C105.815 100.504 105.143 96.2854 105.143 91.656C105.143 87.0267 105.815 82.8454 107.159 79.112C108.577 75.304 110.519 72.056 112.983 69.368C115.521 66.68 118.508 64.6267 121.943 63.208C125.377 61.7147 129.148 60.968 133.255 60.968C137.361 60.968 141.132 61.7147 144.567 63.208C148.076 64.6267 151.063 66.68 153.527 69.368C155.991 72.056 157.895 75.304 159.239 79.112C160.657 82.8454 161.367 87.0267 161.367 91.656ZM147.479 91.656C147.479 85.832 146.209 81.24 143.671 77.88C141.207 74.4453 137.735 72.728 133.255 72.728C128.775 72.728 125.265 74.4453 122.727 77.88C120.263 81.24 119.031 85.832 119.031 91.656C119.031 97.5547 120.263 102.221 122.727 105.656C125.265 109.091 128.775 110.808 133.255 110.808C137.735 110.808 141.207 109.091 143.671 105.656C146.209 102.221 147.479 97.5547 147.479 91.656Z" fill="#094938"/>
<path d="M204.601 71.944C203.108 73.512 201.129 75.7147 198.665 78.552C196.276 81.3893 193.7 84.5627 190.937 88.072C188.175 91.5067 185.375 95.128 182.537 98.936C179.775 102.669 177.273 106.253 175.033 109.688H205.273V121H158.681V112.6C160.324 109.613 162.377 106.365 164.841 102.856C167.305 99.3467 169.844 95.8374 172.457 92.328C175.071 88.744 177.647 85.3467 180.185 82.136C182.799 78.9254 185.113 76.1254 187.129 73.736H160.137V62.424H204.601V71.944Z" fill="#094938"/>
<path d="M259.117 91.656C259.117 96.2854 258.445 100.504 257.101 104.312C255.757 108.12 253.853 111.368 251.389 114.056C248.925 116.744 245.938 118.835 242.429 120.328C238.994 121.821 235.186 122.568 231.005 122.568C226.823 122.568 223.015 121.821 219.581 120.328C216.146 118.835 213.197 116.744 210.733 114.056C208.269 111.368 206.327 108.12 204.909 104.312C203.565 100.504 202.893 96.2854 202.893 91.656C202.893 87.0267 203.565 82.8454 204.909 79.112C206.327 75.304 208.269 72.056 210.733 69.368C213.271 66.68 216.258 64.6267 219.693 63.208C223.127 61.7147 226.898 60.968 231.005 60.968C235.111 60.968 238.882 61.7147 242.317 63.208C245.826 64.6267 248.813 66.68 251.277 69.368C253.741 72.056 255.645 75.304 256.989 79.112C258.407 82.8454 259.117 87.0267 259.117 91.656ZM245.229 91.656C245.229 85.832 243.959 81.24 241.421 77.88C238.957 74.4453 235.485 72.728 231.005 72.728C226.525 72.728 223.015 74.4453 220.477 77.88C218.013 81.24 216.781 85.832 216.781 91.656C216.781 97.5547 218.013 102.221 220.477 105.656C223.015 109.091 226.525 110.808 231.005 110.808C235.485 110.808 238.957 109.091 241.421 105.656C243.959 102.221 245.229 97.5547 245.229 91.656Z" fill="#094938"/>
</svg>
