<svg width="227" height="227" viewBox="0 0 227 227" fill="none" xmlns="http://www.w3.org/2000/svg">
<path d="M0 34C0 15.2223 15.2223 0 34 0H193C211.778 0 227 15.2223 227 34V193C227 211.778 211.778 227 193 227H34C15.2223 227 0 211.778 0 193V34Z" fill="white"/>
<path d="M23 168.9C30.5598 130.6 64.1066 54 137.815 54C211.523 54 91.9834 130.6 23 168.9Z" fill="#FFC501"/>
<path d="M25.3624 171.617C46.0254 157.401 95.8253 137.252 129.721 170.376C163.617 203.501 74.2718 185.005 25.3624 171.617Z" fill="#FFC501"/>
</svg>
