<svg width="24" height="24" viewBox="0 0 24 24" fill="none" xmlns="http://www.w3.org/2000/svg">
<path d="M17.66 22.6701C17.13 22.6701 16.45 22.5001 15.6 22.0001L12.61 20.2301C12.3 20.0501 11.7 20.0501 11.4 20.2301L8.4 22.0001C6.63 23.0501 5.59 22.6301 5.12 22.2901C4.66 21.9501 3.94 21.0801 4.41 19.0801L5.12 16.0101C5.2 15.6901 5.04 15.1401 4.8 14.9001L2.32 12.4201C1.08 11.1801 1.18 10.1201 1.35 9.60007C1.52 9.08007 2.06 8.16007 3.78 7.87007L6.97 7.34007C7.27 7.29007 7.7 6.97007 7.83 6.70007L9.6 3.17007C10.4 1.56007 11.45 1.32007 12 1.32007C12.55 1.32007 13.6 1.56007 14.4 3.17007L16.16 6.69007C16.3 6.96007 16.73 7.28007 17.03 7.33007L20.22 7.86007C21.95 8.15007 22.49 9.07007 22.65 9.59007C22.81 10.1101 22.91 11.1701 21.68 12.4101L19.2 14.9001C18.96 15.1401 18.81 15.6801 18.88 16.0101L19.59 19.0801C20.05 21.0801 19.34 21.9501 18.88 22.2901C18.63 22.4701 18.23 22.6701 17.66 22.6701ZM12 18.5901C12.49 18.5901 12.98 18.7101 13.37 18.9401L16.36 20.7101C17.23 21.2301 17.78 21.2301 17.99 21.0801C18.2 20.9301 18.35 20.4001 18.13 19.4201L17.42 16.3501C17.23 15.5201 17.54 14.4501 18.14 13.8401L20.62 11.3601C21.11 10.8701 21.33 10.3901 21.23 10.0601C21.12 9.73007 20.66 9.46007 19.98 9.35007L16.79 8.82007C16.02 8.69007 15.18 8.07007 14.83 7.37007L13.07 3.85007C12.75 3.21007 12.35 2.83007 12 2.83007C11.65 2.83007 11.25 3.21007 10.94 3.85007L9.17 7.37007C8.82 8.07007 7.98 8.69007 7.21 8.82007L4.03 9.35007C3.35 9.46007 2.89 9.73007 2.78 10.0601C2.67 10.3901 2.9 10.8801 3.39 11.3601L5.87 13.8401C6.47 14.4401 6.78 15.5201 6.59 16.3501L5.88 19.4201C5.65 20.4101 5.81 20.9301 6.02 21.0801C6.23 21.2301 6.77 21.2201 7.65 20.7101L10.64 18.9401C11.02 18.7101 11.51 18.5901 12 18.5901Z" fill="#27AE60"/>
</svg>
