<svg width="24" height="24" viewBox="0 0 24 24" fill="none" xmlns="http://www.w3.org/2000/svg">
<path d="M15.97 22.75H7.97C4.55 22.75 3.22 21.42 3.22 18V10C3.22 9.59 3.56 9.25 3.97 9.25H19.97C20.38 9.25 20.72 9.59 20.72 10V18C20.72 21.42 19.39 22.75 15.97 22.75ZM4.72 10.75V18C4.72 20.58 5.39 21.25 7.97 21.25H15.97C18.55 21.25 19.22 20.58 19.22 18V10.75H4.72Z" fill="#27AE60"/>
<path d="M19.5 10.75H4.5C2.75 10.75 1.75 9.75 1.75 8V7C1.75 5.25 2.75 4.25 4.5 4.25H19.5C21.2 4.25 22.25 5.3 22.25 7V8C22.25 9.7 21.2 10.75 19.5 10.75ZM4.5 5.75C3.59 5.75 3.25 6.09 3.25 7V8C3.25 8.91 3.59 9.25 4.5 9.25H19.5C20.38 9.25 20.75 8.88 20.75 8V7C20.75 6.12 20.38 5.75 19.5 5.75H4.5Z" fill="#27AE60"/>
<path d="M11.64 5.74988H6.12C5.91 5.74988 5.71 5.65988 5.57 5.50988C4.96 4.83988 4.98 3.80988 5.62 3.16988L7.04 1.74988C7.7 1.08988 8.79 1.08988 9.45 1.74988L12.17 4.46988C12.38 4.67988 12.45 5.00988 12.33 5.28988C12.22 5.56988 11.95 5.74988 11.64 5.74988ZM6.67 4.24988H9.84L8.39 2.80988C8.31 2.72988 8.18 2.72988 8.1 2.80988L6.68 4.22988C6.68 4.23988 6.67 4.23988 6.67 4.24988Z" fill="#27AE60"/>
<path d="M17.87 5.74988H12.35C12.05 5.74988 11.77 5.56988 11.66 5.28988C11.54 5.00988 11.61 4.68988 11.82 4.46988L14.54 1.74988C15.2 1.08988 16.29 1.08988 16.95 1.74988L18.37 3.16988C19.01 3.80988 19.04 4.83988 18.42 5.50988C18.28 5.65988 18.08 5.74988 17.87 5.74988ZM14.17 4.24988H17.34C17.33 4.23988 17.33 4.23988 17.32 4.22988L15.9 2.80988C15.82 2.72988 15.69 2.72988 15.61 2.80988L14.17 4.24988Z" fill="#27AE60"/>
<path d="M9.94 16.9C9.66 16.9 9.37 16.83 9.11 16.69C8.54 16.38 8.19 15.79 8.19 15.15V10C8.19 9.59 8.53 9.25 8.94 9.25H14.98C15.39 9.25 15.73 9.59 15.73 10V15.13C15.73 15.78 15.38 16.37 14.81 16.67C14.24 16.98 13.55 16.94 13.01 16.58L12.12 15.98C12.04 15.92 11.93 15.92 11.84 15.98L10.9 16.6C10.61 16.8 10.27 16.9 9.94 16.9ZM9.69 10.75V15.14C9.69 15.27 9.77 15.33 9.82 15.36C9.87 15.39 9.97 15.42 10.08 15.35L11.02 14.73C11.61 14.34 12.37 14.34 12.95 14.73L13.84 15.33C13.95 15.4 14.05 15.37 14.1 15.34C14.15 15.31 14.23 15.25 14.23 15.12V10.74H9.69V10.75Z" fill="#27AE60"/>
</svg>
