<svg width="121" height="121" viewBox="0 0 121 121" fill="none" xmlns="http://www.w3.org/2000/svg">
<path d="M10.0833 65.5418V75.6252C10.0833 100.833 20.1667 110.917 45.375 110.917H75.625C100.833 110.917 110.917 100.833 110.917 75.6252V45.3752C110.917 20.1668 100.833 10.0835 75.625 10.0835H45.375C20.1667 10.0835 10.0833 20.1668 10.0833 45.3752" stroke="#27AE60" stroke-width="1.5" stroke-linecap="round" stroke-linejoin="round"/>
<path d="M35.2917 44.1147C40.3333 39.0731 48.5513 39.0731 53.6433 44.1147" stroke="#27AE60" stroke-width="1.5" stroke-miterlimit="10" stroke-linecap="round" stroke-linejoin="round"/>
<path d="M67.3567 44.1147C72.3983 39.0731 80.6163 39.0731 85.7083 44.1147" stroke="#27AE60" stroke-width="1.5" stroke-miterlimit="10" stroke-linecap="round" stroke-linejoin="round"/>
<path d="M42.35 89.2377H78.65C81.1708 89.2377 83.1875 87.221 83.1875 84.7002C83.1875 72.1464 73.0537 62.0127 60.5 62.0127C47.9462 62.0127 37.8125 72.1464 37.8125 84.7002C37.8125 87.221 39.8292 89.2377 42.35 89.2377Z" stroke="#27AE60" stroke-width="1.5" stroke-miterlimit="10" stroke-linecap="round" stroke-linejoin="round"/>
</svg>
