<svg width="24" height="21" viewBox="0 0 24 21" fill="none" xmlns="http://www.w3.org/2000/svg">
<path d="M22.235 2.1001L22.9832 2.04813C22.9625 1.75091 22.7679 1.4941 22.4874 1.39384C22.2068 1.29358 21.8935 1.36889 21.6892 1.5857L22.235 2.1001ZM21.5206 6.24256C21.5206 5.82835 21.1848 5.49256 20.7706 5.49256C20.3564 5.49256 20.0206 5.82835 20.0206 6.24256H21.5206ZM11.9842 6.35763H11.2342V6.35763L11.9842 6.35763ZM11.9842 7.7001L12.7342 7.7001V7.7001L11.9842 7.7001ZM1.73334 17.5001V16.7501C1.39998 16.7501 1.10663 16.9701 1.01332 17.2902C0.920007 17.6102 1.04912 17.9534 1.33024 18.1326L1.73334 17.5001ZM3.19774 2.1001L3.89595 1.82623C3.78867 1.55274 3.5316 1.36706 3.23825 1.35119C2.9449 1.33533 2.6693 1.49219 2.53315 1.75251L3.19774 2.1001ZM9.05535 14.7001L9.57363 15.2422C9.76497 15.0593 9.84571 14.7891 9.78608 14.5311C9.72645 14.2732 9.53528 14.0659 9.28307 13.9855L9.05535 14.7001ZM19.6502 3.46283L19.1057 3.97861L19.3729 4.26071L19.7575 4.20511L19.6502 3.46283ZM21.4868 2.15206C21.5621 3.23631 21.4915 3.88406 21.3121 4.36684C21.1379 4.83564 20.8321 5.22736 20.2644 5.74669L21.2768 6.85351C21.9191 6.26598 22.4236 5.68181 22.7181 4.88937C23.0074 4.11091 23.064 3.21209 22.9832 2.04813L21.4868 2.15206ZM21.5206 7.26259V6.24256H20.0206V7.26259H21.5206ZM11.2342 6.35763L11.2342 7.7001L12.7342 7.7001L12.7342 6.35763L11.2342 6.35763ZM11.2342 7.7001L11.2342 8.4001L12.7342 8.4001L12.7342 7.7001L11.2342 7.7001ZM16.4375 1.3501C13.5959 1.3501 11.2342 3.56062 11.2342 6.35763H12.7342C12.7342 4.45191 14.3601 2.8501 16.4375 2.8501V1.3501ZM20.0206 7.26259C20.0206 13.2442 14.9385 18.1501 8.59771 18.1501V19.6501C15.7027 19.6501 21.5206 14.1355 21.5206 7.26259H20.0206ZM2.49953 2.37397C3.30682 4.43206 6.31236 8.4501 11.9842 8.4501V6.9501C7.11225 6.9501 4.55306 3.50147 3.89595 1.82623L2.49953 2.37397ZM2.53315 1.75251C0.991044 4.70108 0.747657 7.57505 1.87576 10.0262C2.99805 12.4647 5.40422 14.3237 8.82763 15.4147L9.28307 13.9855C6.11668 12.9765 4.12963 11.3355 3.23837 9.39903C2.35292 7.47514 2.47563 5.09912 3.86234 2.44768L2.53315 1.75251ZM8.53707 14.158C7.65958 14.9969 5.00493 16.7501 1.73334 16.7501V18.2501C5.49088 18.2501 8.49861 16.27 9.57363 15.2422L8.53707 14.158ZM20.1947 2.94705C19.2622 1.96265 17.9205 1.3501 16.4375 1.3501V2.8501C17.5029 2.8501 18.4525 3.28906 19.1057 3.97861L20.1947 2.94705ZM19.7575 4.20511C20.8684 4.04452 21.9587 3.48677 22.7808 2.61449L21.6892 1.5857C21.0966 2.21443 20.3141 2.60905 19.5429 2.72055L19.7575 4.20511ZM1.33024 18.1326C3.73675 19.6663 6.25696 19.6501 8.59771 19.6501V18.1501C6.20581 18.1501 4.12313 18.1338 2.13644 16.8676L1.33024 18.1326Z" fill="#27AE60"/>
</svg>
