<svg width="24" height="24" viewBox="0 0 24 24" fill="none" xmlns="http://www.w3.org/2000/svg">
<path d="M21.45 13.64V14.64C21.45 14.91 21.24 15.13 20.96 15.14H19.5C18.97 15.14 18.49 14.75 18.45 14.23C18.42 13.92 18.54 13.63 18.74 13.43C18.92 13.24 19.17 13.14 19.44 13.14H20.95C21.24 13.15 21.45 13.37 21.45 13.64Z" fill="#27AE60"/>
<path d="M17.99 12.69C17.49 13.18 17.25 13.91 17.45 14.67C17.71 15.6 18.62 16.19 19.58 16.19H20.45C21 16.19 21.45 16.64 21.45 17.19V17.38C21.45 19.45 19.76 21.14 17.69 21.14H6.21001C4.14001 21.14 2.45001 19.45 2.45001 17.38V10.65C2.45001 9.42001 3.04001 8.33001 3.95001 7.65001C4.58001 7.17001 5.36001 6.89001 6.21001 6.89001H17.69C19.76 6.89001 21.45 8.58001 21.45 10.65V11.09C21.45 11.64 21 12.09 20.45 12.09H19.43C18.87 12.09 18.36 12.31 17.99 12.69Z" fill="#27AE60"/>
<path d="M16.2 4.82C16.47 5.09 16.24 5.51 15.86 5.51L8.18 5.5C7.74 5.5 7.51 4.96 7.83 4.65L9.45 3.02C10.82 1.66 13.04 1.66 14.41 3.02L16.16 4.79C16.17 4.8 16.19 4.81 16.2 4.82Z" fill="#27AE60"/>
</svg>
