<svg width="69" height="69" viewBox="0 0 69 69" fill="none" xmlns="http://www.w3.org/2000/svg">
<path d="M43.1826 8.65378C40.7676 6.81378 37.7775 5.75 34.5 5.75C26.565 5.75 20.125 12.19 20.125 20.125C20.125 28.06 26.565 34.5 34.5 34.5C42.435 34.5 48.875 28.06 48.875 20.125" stroke="#27AE60" stroke-width="1.5" stroke-linecap="round" stroke-linejoin="round"/>
<path d="M55.2287 45.2524L45.0511 55.43C44.6486 55.8325 44.2749 56.5799 44.1887 57.1262L43.6424 61.0074C43.4412 62.4161 44.4187 63.3937 45.8274 63.1924L49.7086 62.6462C50.2549 62.5599 51.0312 62.1862 51.4049 61.7837L61.5824 51.6062C63.3361 49.8525 64.1699 47.8112 61.5824 45.2237C59.0236 42.6649 56.9825 43.4987 55.2287 45.2524Z" stroke="#27AE60" stroke-width="1.5" stroke-miterlimit="10" stroke-linecap="round" stroke-linejoin="round"/>
<path d="M53.7625 46.7188C54.625 49.8238 57.0399 52.2387 60.1449 53.1012" stroke="#27AE60" stroke-width="1.5" stroke-miterlimit="10" stroke-linecap="round" stroke-linejoin="round"/>
<path d="M9.80365 63.25C9.80365 52.1238 20.8725 43.125 34.5 43.125C37.49 43.125 40.3649 43.5562 43.0386 44.3612" stroke="#27AE60" stroke-width="1.5" stroke-linecap="round" stroke-linejoin="round"/>
</svg>
