<svg width="121" height="121" viewBox="0 0 121 121" fill="none" xmlns="http://www.w3.org/2000/svg">
<path d="M63.9283 19.9652C66.3483 23.5447 67.76 27.8302 67.76 32.4685C67.7096 44.5685 58.1808 54.3997 46.1817 54.8031C45.6775 54.7527 45.0725 54.7527 44.5179 54.8031C32.5187 54.3997 22.99 44.5685 22.99 32.4685C22.99 20.1164 32.9725 10.0835 45.375 10.0835" stroke="#27AE60" stroke-width="1.5" stroke-linecap="round" stroke-linejoin="round"/>
<path d="M82.7338 20.1665C92.5146 20.1665 100.38 28.0819 100.38 37.8123C100.38 47.3411 92.8171 55.1053 83.3892 55.4582C82.9859 55.4078 82.5321 55.4078 82.0784 55.4582" stroke="#27AE60" stroke-width="1.5" stroke-linecap="round" stroke-linejoin="round"/>
<path d="M20.9734 73.4065C8.77255 81.574 8.77255 94.884 20.9734 103.001C34.838 112.278 57.5759 112.278 71.4405 103.001C83.6413 94.8336 83.6413 81.5236 71.4405 73.4065C57.6263 64.1803 34.8884 64.1803 20.9734 73.4065Z" stroke="#27AE60" stroke-width="1.5" stroke-linecap="round" stroke-linejoin="round"/>
<path d="M92.4641 100.833C96.0941 100.077 99.5224 98.6152 102.346 96.4472C110.211 90.5485 110.211 80.8181 102.346 74.9193C99.5729 72.8018 96.1949 71.3902 92.6154 70.5835" stroke="#27AE60" stroke-width="1.5" stroke-linecap="round" stroke-linejoin="round"/>
</svg>
