<svg width="32" height="32" viewBox="0 0 32 32" fill="none" xmlns="http://www.w3.org/2000/svg">
<path d="M12.296 21.3498C11.9957 21.0628 11.9884 20.5904 12.2799 20.2948C12.5712 19.9991 13.0509 19.9921 13.3512 20.2791C14.1769 21.0684 15.2397 21.4625 16.5835 21.4625C17.9272 21.4625 18.9902 21.0684 19.816 20.2791C20.1163 19.9921 20.5959 19.9991 20.8873 20.2948C21.1788 20.5904 21.1716 21.0628 20.8713 21.3498C19.7525 22.4192 18.3086 22.9547 16.5835 22.9547C14.8585 22.9547 13.4148 22.4192 12.296 21.3498Z" fill="#8D8E8D"/>
<path d="M11.0898 12.3171C11.0898 11.8853 11.427 11.5352 11.8428 11.5352C12.2585 11.5352 12.5957 11.8853 12.5957 12.3171V14.1416C12.5957 14.5733 12.2585 14.9234 11.8428 14.9234C11.427 14.9234 11.0898 14.5733 11.0898 14.1416V12.3171Z" fill="#8D8E8D"/>
<path d="M20.8784 12.3171C20.8784 11.8853 21.2156 11.5352 21.6314 11.5352C22.0471 11.5352 22.3843 11.8853 22.3843 12.3171V14.1416C22.3843 14.5733 22.0471 14.9234 21.6314 14.9234C21.2156 14.9234 20.8784 14.5733 20.8784 14.1416V12.3171Z" fill="#8D8E8D"/>
<path d="M16.1265 17.1404C16.5965 17.1404 16.7538 16.9816 16.7872 16.3879V12.3089C16.7872 11.8815 17.138 11.5352 17.5709 11.5352C18.0037 11.5352 18.3545 11.8815 18.3545 12.3089V16.4083L18.3535 16.4473C18.282 17.8462 17.4746 18.6881 16.1265 18.6881C15.6936 18.6881 15.3428 18.3416 15.3428 17.9143C15.3428 17.4869 15.6936 17.1404 16.1265 17.1404Z" fill="#8D8E8D"/>
<mask id="mask0_725_2923" style="mask-type:luminance" maskUnits="userSpaceOnUse" x="0" y="0" width="32" height="32">
<path d="M0 0H32V32H0V0Z" fill="white"/>
</mask>
<g mask="url(#mask0_725_2923)">
<path d="M20.4692 2.84375C21.7974 2.84375 22.6936 2.84375 22.6936 2.84375C26.2846 2.84375 29.2002 5.7593 29.2002 9.35023C29.2002 9.35023 29.2 10.4516 29.2 12.0244" stroke="#8D8E8D" stroke-width="2" stroke-linecap="round" stroke-linejoin="round"/>
<path d="M2.84033 12.4157C2.84033 10.6373 2.84033 9.35023 2.84033 9.35023C2.84018 5.7593 5.75574 2.84375 9.34666 2.84375C9.34666 2.84375 10.0699 2.84375 11.1799 2.84375" stroke="#8D8E8D" stroke-width="2" stroke-linecap="round" stroke-linejoin="round"/>
<path d="M11.4107 29.3167C10.1715 29.3167 9.34696 29.3167 9.34696 29.3167C5.75589 29.3167 2.84033 26.4012 2.84033 22.8102C2.84033 22.8102 2.84048 22.0629 2.84048 20.9204" stroke="#8D8E8D" stroke-width="2" stroke-linecap="round" stroke-linejoin="round"/>
<path d="M29.2 20.6899C29.2 21.9614 29.2 22.8102 29.2 22.8102C29.2001 26.4011 26.2846 29.3166 22.6937 29.3166C22.6937 29.3166 22.3629 29.3166 21.8057 29.3166" stroke="#8D8E8D" stroke-width="2" stroke-linecap="round" stroke-linejoin="round"/>
</g>
</svg>
