<svg width="24" height="24" viewBox="0 0 24 24" fill="none" xmlns="http://www.w3.org/2000/svg">
<path fill-rule="evenodd" clip-rule="evenodd" d="M20.04 6.82L14.28 2.79C12.71 1.69 10.3 1.75 8.78999 2.92L3.77999 6.83C2.77999 7.61 1.98999 9.21 1.98999 10.47V17.37C1.98999 19.92 4.05999 22 6.60999 22H17.39C19.94 22 22.01 19.93 22.01 17.38V10.6C22.01 9.25 21.14 7.59 20.04 6.82ZM14.5 10.75C14.0858 10.75 13.75 11.0858 13.75 11.5C13.75 11.9142 14.0858 12.25 14.5 12.25H15.75V13.5C15.75 13.9142 16.0858 14.25 16.5 14.25C16.9142 14.25 17.25 13.9142 17.25 13.5V11.5C17.25 11.0858 16.9142 10.75 16.5 10.75H14.5Z" fill="#27AE60"/>
</svg>
