<svg width="24" height="24" viewBox="0 0 24 24" fill="none" xmlns="http://www.w3.org/2000/svg">
<path d="M17 3V7H21" stroke="#27AE60" stroke-width="1.5" stroke-linecap="round" stroke-linejoin="round"/>
<path d="M22 2L17 7" stroke="#27AE60" stroke-width="1.5" stroke-linecap="round" stroke-linejoin="round"/>
<path d="M12 2C6.48 2 2 6.48 2 12C2 15.94 4.28001 19.35 7.60001 20.98" stroke="#27AE60" stroke-width="1.5" stroke-linecap="round" stroke-linejoin="round"/>
<path d="M22 12C22 17.52 17.52 22 12 22" stroke="#27AE60" stroke-width="1.5" stroke-linecap="round" stroke-linejoin="round"/>
<path d="M9.33903 16C8.96769 16 8.66667 15.699 8.66667 15.3276V8.72534C8.66667 8.32475 8.99141 8 9.39201 8C9.61727 8 9.82975 8.10466 9.96705 8.28325L14.3246 13.9512C14.4089 14.0608 14.3442 14.2207 14.2073 14.2407C14.098 14.2568 14 14.172 14 14.0616V8.66667C14 8.29848 14.2985 8 14.6667 8C15.0349 8 15.3333 8.29848 15.3333 8.66667V15.2767C15.3333 15.6762 15.0095 16 14.61 16C14.3837 16 14.1704 15.894 14.0336 15.7136L9.69545 9.99072C9.61596 9.88585 9.6756 9.73404 9.80521 9.71131C9.91281 9.69245 10.0114 9.77525 10.0114 9.8845V15.3276C10.0114 15.699 9.71037 16 9.33903 16Z" fill="#27AE60"/>
<path d="M8 11.3333C8 10.9651 8.29848 10.6667 8.66667 10.6667H15.3333C15.7015 10.6667 16 10.9651 16 11.3333C16 11.7015 15.7015 12 15.3333 12H8.66667C8.29848 12 8 11.7015 8 11.3333Z" fill="#27AE60"/>
<path d="M8 13.3333C8 12.9651 8.29848 12.6667 8.66667 12.6667H15.3333C15.7015 12.6667 16 12.9651 16 13.3333C16 13.7015 15.7015 14 15.3333 14H8.66667C8.29848 14 8 13.7015 8 13.3333Z" fill="#27AE60"/>
</svg>
