<svg width="24" height="24" viewBox="0 0 24 24" fill="none" xmlns="http://www.w3.org/2000/svg">
<path d="M14.16 10H14.75" stroke="#646A78" stroke-width="1.5" stroke-linecap="round" stroke-linejoin="round"/>
<path d="M9.25 10H11.65" stroke="#646A78" stroke-width="1.5" stroke-linecap="round" stroke-linejoin="round"/>
<path d="M3.49998 11V18.3C3.49998 20.96 4.95998 21.59 6.72998 19.69L6.73999 19.68C7.55999 18.81 8.80999 18.88 9.51999 19.83L10.53 21.18C11.34 22.25 12.65 22.25 13.46 21.18L14.47 19.83C15.19 18.87 16.44 18.8 17.26 19.68C19.04 21.58 20.49 20.95 20.49 18.29V7.04C20.49 3.01 19.55 2 15.77 2H8.20999C4.42999 2 3.48999 3.01 3.48999 7.04" stroke="#646A78" stroke-width="1.5" stroke-linecap="round" stroke-linejoin="round"/>
</svg>
