<svg width="184" height="184" viewBox="0 0 184 184" fill="none" xmlns="http://www.w3.org/2000/svg">
<path d="M30.4368 138C30.4368 161 38.1034 168.667 61.1034 168.667H122.437C145.437 168.667 153.103 161 153.103 138V76.6667H30.4368V106.107" stroke="#27AE60" stroke-width="1.5" stroke-miterlimit="10" stroke-linecap="round" stroke-linejoin="round"/>
<path d="M164.833 53.6666V61.3333C164.833 69.7666 160.77 76.6666 149.5 76.6666H34.5001C22.7701 76.6666 19.1667 69.7666 19.1667 61.3333V53.6666C19.1667 45.2333 22.7701 38.3333 34.5001 38.3333H149.5C160.77 38.3333 164.833 45.2333 164.833 53.6666Z" stroke="#27AE60" stroke-width="1.5" stroke-miterlimit="10" stroke-linecap="round" stroke-linejoin="round"/>
<path d="M89.2399 38.3334H46.9199C44.3132 35.4967 44.3899 31.1267 47.1499 28.3667L58.0366 17.48C60.8732 14.6434 65.5499 14.6434 68.3866 17.48L89.2399 38.3334Z" stroke="#27AE60" stroke-width="1.5" stroke-miterlimit="10" stroke-linecap="round" stroke-linejoin="round"/>
<path d="M137.003 38.3334H94.6833L115.537 17.48C118.373 14.6434 123.05 14.6434 125.887 17.48L136.773 28.3667C139.533 31.1267 139.61 35.4967 137.003 38.3334Z" stroke="#27AE60" stroke-width="1.5" stroke-miterlimit="10" stroke-linecap="round" stroke-linejoin="round"/>
<path d="M68.54 76.6667V116.073C68.54 122.207 75.2867 125.81 80.4234 122.513L87.63 117.76C90.2367 116.073 93.5334 116.073 96.0634 117.76L102.887 122.36C107.947 125.733 114.77 122.13 114.77 115.997V76.6667H68.54Z" stroke="#27AE60" stroke-width="1.5" stroke-miterlimit="10" stroke-linecap="round" stroke-linejoin="round"/>
</svg>
