<svg width="121" height="121" viewBox="0 0 121 121" fill="none" xmlns="http://www.w3.org/2000/svg">
<path d="M20.1667 30.2499C13.8646 38.6695 10.0834 49.1562 10.0834 60.4999C10.0834 88.3299 32.67 110.917 60.5 110.917C88.33 110.917 110.917 88.3299 110.917 60.4999C110.917 32.6699 88.33 10.0833 60.5 10.0833C53.2905 10.0833 46.3834 11.5958 40.1821 14.3687" stroke="#27AE60" stroke-width="1.5" stroke-linecap="round" stroke-linejoin="round"/>
<path d="M35.2916 44.1147C40.3333 39.0731 48.5512 39.0731 53.6433 44.1147" stroke="#27AE60" stroke-width="1.5" stroke-miterlimit="10" stroke-linecap="round" stroke-linejoin="round"/>
<path d="M67.3567 44.1147C72.3984 39.0731 80.6163 39.0731 85.7084 44.1147" stroke="#27AE60" stroke-width="1.5" stroke-miterlimit="10" stroke-linecap="round" stroke-linejoin="round"/>
<path d="M42.35 89.2377H78.65C81.1708 89.2377 83.1875 87.221 83.1875 84.7002C83.1875 72.1464 73.0537 62.0127 60.5 62.0127C47.9462 62.0127 37.8125 72.1464 37.8125 84.7002C37.8125 87.221 39.8292 89.2377 42.35 89.2377Z" stroke="#27AE60" stroke-width="1.5" stroke-miterlimit="10" stroke-linecap="round" stroke-linejoin="round"/>
</svg>
