<svg width="24" height="24" viewBox="0 0 24 24" fill="none" xmlns="http://www.w3.org/2000/svg">
<path d="M10.75 2.45007C11.44 1.86007 12.57 1.86007 13.27 2.45007L14.85 3.81005C15.15 4.07005 15.71 4.28009 16.11 4.28009H17.81C18.87 4.28009 19.74 5.15008 19.74 6.21008V7.91003C19.74 8.30003 19.95 8.87004 20.21 9.17004L21.57 10.7501C22.16 11.4401 22.16 12.5701 21.57 13.2701L20.21 14.85C19.95 15.15 19.74 15.71 19.74 16.11V17.8101C19.74 18.8701 18.87 19.74 17.81 19.74H16.11C15.72 19.74 15.15 19.9501 14.85 20.2101L13.27 21.5701C12.58 22.1601 11.45 22.1601 10.75 21.5701L9.17002 20.2101C8.87002 19.9501 8.31001 19.74 7.91001 19.74H6.18C5.12 19.74 4.25 18.8701 4.25 17.8101V16.1C4.25 15.71 4.04001 15.15 3.79001 14.85L2.44 13.2601C1.86 12.5701 1.86 11.4501 2.44 10.7601L3.79001 9.17004C4.04001 8.87004 4.25 8.31004 4.25 7.92004V6.21008C4.25 5.15008 5.12 4.28009 6.18 4.28009H7.91001C8.30001 4.28009 8.87002 4.07005 9.17002 3.81005L10.75 2.45007Z" fill="#FFC501"/>
<path d="M16.58 11.07C16.39 10.8 16.07 10.65 15.69 10.65H13.74C13.61 10.65 13.49 10.6 13.41 10.5C13.33 10.4 13.29 10.27 13.31 10.13L13.55 8.56998C13.65 8.10998 13.34 7.57997 12.88 7.42997C12.45 7.26997 11.94 7.48995 11.74 7.78995L9.79999 10.67V10.31C9.79999 9.60997 9.50001 9.31998 8.76001 9.31998H8.26999C7.52999 9.31998 7.23001 9.60997 7.23001 10.31V15.09C7.23001 15.79 7.52999 16.08 8.26999 16.08H8.76001C9.46001 16.08 9.76001 15.81 9.79001 15.17L11.26 16.3C11.46 16.5 11.91 16.61 12.23 16.61H14.08C14.72 16.61 15.36 16.13 15.5 15.54L16.67 11.98C16.8 11.66 16.77 11.33 16.58 11.07Z" fill="white"/>
</svg>
