<svg width="24" height="24" viewBox="0 0 24 24" fill="none" xmlns="http://www.w3.org/2000/svg">
<path d="M2 12C2 9.28 3.64 7.38 6.19 7.06C6.45 7.02 6.72 7 7 7H17C17.26 7 17.51 7.00999 17.75 7.04999C20.33 7.34999 22 9.26 22 12V17C22 20 20 22 17 22H7C4 22 2 20 2 17V16.01" stroke="#646A78" stroke-width="1.5" stroke-linecap="round" stroke-linejoin="round"/>
<path d="M17.75 7.05C17.51 7.01 17.26 7.00001 17 7.00001H7C6.72 7.00001 6.45 7.02001 6.19 7.06001C6.33 6.78001 6.53 6.52001 6.77 6.28001L10.02 3.02C11.39 1.66 13.61 1.66 14.98 3.02L16.73 4.79002C17.37 5.42002 17.71 6.22 17.75 7.05Z" stroke="#646A78" stroke-width="1.5" stroke-linecap="round" stroke-linejoin="round"/>
<path d="M22 12.5H19C17.9 12.5 17 13.4 17 14.5C17 15.6 17.9 16.5 19 16.5H22" stroke="#646A78" stroke-width="1.5" stroke-linecap="round" stroke-linejoin="round"/>
</svg>
